<mxfile host="app.diagrams.net" modified="2023-09-04T17:37:45.780Z" agent="Mozilla/5.0 (Windows NT 10.0; Win64; x64) AppleWebKit/537.36 (KHTML, like Gecko) Chrome/116.0.0.0 Safari/537.36" etag="gwPSxcaAVuYhowpMTrUG" version="21.7.0" type="device">
  <diagram name="PÃ¡gina-1" id="LG9oz2GDadcfTGrf9mqe">
    <mxGraphModel dx="1434" dy="758" grid="1" gridSize="10" guides="1" tooltips="1" connect="1" arrows="1" fold="1" page="1" pageScale="1" pageWidth="1169" pageHeight="827" math="0" shadow="0">
      <root>
        <mxCell id="0" />
        <mxCell id="1" parent="0" />
        <mxCell id="GG2dQuEG85UPLXLz023l-1" value="Journey example" style="text;strokeColor=none;fillColor=none;html=1;fontSize=24;fontStyle=1;verticalAlign=middle;align=center;" vertex="1" parent="1">
          <mxGeometry x="95" y="90" width="100" height="40" as="geometry" />
        </mxCell>
        <mxCell id="GG2dQuEG85UPLXLz023l-2" value="Project: Marketing automation system" style="text;align=center;fontStyle=1;verticalAlign=middle;spacingLeft=3;spacingRight=3;strokeColor=none;rotatable=0;points=[[0,0.5],[1,0.5]];portConstraint=eastwest;html=1;" vertex="1" parent="1">
          <mxGeometry x="105" y="120" width="80" height="26" as="geometry" />
        </mxCell>
        <mxCell id="GG2dQuEG85UPLXLz023l-4" value="" style="ellipse;html=1;shape=startState;fillColor=#000000;strokeColor=#000000;" vertex="1" parent="1">
          <mxGeometry x="115" y="265" width="30" height="30" as="geometry" />
        </mxCell>
        <mxCell id="GG2dQuEG85UPLXLz023l-7" value="Welcome email" style="rounded=1;whiteSpace=wrap;html=1;" vertex="1" parent="1">
          <mxGeometry x="250" y="250" width="120" height="60" as="geometry" />
        </mxCell>
        <mxCell id="GG2dQuEG85UPLXLz023l-8" value="Delay 1 day" style="rounded=1;whiteSpace=wrap;html=1;" vertex="1" parent="1">
          <mxGeometry x="480" y="210" width="120" height="50" as="geometry" />
        </mxCell>
        <mxCell id="GG2dQuEG85UPLXLz023l-9" value="Marketer notification" style="rounded=1;whiteSpace=wrap;html=1;" vertex="1" parent="1">
          <mxGeometry x="480" y="280" width="120" height="50" as="geometry" />
        </mxCell>
        <mxCell id="GG2dQuEG85UPLXLz023l-12" value="" style="rounded=0;whiteSpace=wrap;html=1;direction=south;fillColor=#000000;" vertex="1" parent="1">
          <mxGeometry x="410" y="210" width="20" height="120" as="geometry" />
        </mxCell>
        <mxCell id="GG2dQuEG85UPLXLz023l-13" value="" style="rounded=0;whiteSpace=wrap;html=1;direction=south;fillColor=#000000;" vertex="1" parent="1">
          <mxGeometry x="650" y="210" width="20" height="120" as="geometry" />
        </mxCell>
        <mxCell id="GG2dQuEG85UPLXLz023l-14" value="" style="rhombus;whiteSpace=wrap;html=1;" vertex="1" parent="1">
          <mxGeometry x="750" y="250" width="40" height="40" as="geometry" />
        </mxCell>
        <mxCell id="GG2dQuEG85UPLXLz023l-15" value="" style="rhombus;whiteSpace=wrap;html=1;" vertex="1" parent="1">
          <mxGeometry x="980" y="250" width="40" height="40" as="geometry" />
        </mxCell>
        <mxCell id="GG2dQuEG85UPLXLz023l-16" value="Delay 1 week" style="rounded=1;whiteSpace=wrap;html=1;" vertex="1" parent="1">
          <mxGeometry x="709" y="380" width="120" height="50" as="geometry" />
        </mxCell>
        <mxCell id="GG2dQuEG85UPLXLz023l-17" value="Send special offer email" style="rounded=1;whiteSpace=wrap;html=1;" vertex="1" parent="1">
          <mxGeometry x="940" y="380" width="120" height="50" as="geometry" />
        </mxCell>
        <mxCell id="GG2dQuEG85UPLXLz023l-18" value="" style="rhombus;whiteSpace=wrap;html=1;" vertex="1" parent="1">
          <mxGeometry x="750" y="520" width="40" height="40" as="geometry" />
        </mxCell>
        <mxCell id="GG2dQuEG85UPLXLz023l-19" value="" style="rhombus;whiteSpace=wrap;html=1;" vertex="1" parent="1">
          <mxGeometry x="980" y="520" width="40" height="40" as="geometry" />
        </mxCell>
        <mxCell id="GG2dQuEG85UPLXLz023l-20" value="" style="rhombus;whiteSpace=wrap;html=1;" vertex="1" parent="1">
          <mxGeometry x="520" y="520" width="40" height="40" as="geometry" />
        </mxCell>
        <mxCell id="GG2dQuEG85UPLXLz023l-21" value="Delay 1 week" style="rounded=1;whiteSpace=wrap;html=1;" vertex="1" parent="1">
          <mxGeometry x="810" y="600" width="120" height="50" as="geometry" />
        </mxCell>
        <mxCell id="GG2dQuEG85UPLXLz023l-22" value="Send SMS &quot;We have discounts&quot;" style="rounded=1;whiteSpace=wrap;html=1;" vertex="1" parent="1">
          <mxGeometry x="1080" y="600" width="120" height="50" as="geometry" />
        </mxCell>
        <mxCell id="GG2dQuEG85UPLXLz023l-23" value="Delay 1 week" style="rounded=1;whiteSpace=wrap;html=1;" vertex="1" parent="1">
          <mxGeometry x="940" y="720" width="120" height="50" as="geometry" />
        </mxCell>
        <mxCell id="GG2dQuEG85UPLXLz023l-24" value="" style="ellipse;html=1;shape=endState;fillColor=#000000;strokeColor=#000000;" vertex="1" parent="1">
          <mxGeometry x="115" y="525" width="30" height="30" as="geometry" />
        </mxCell>
        <mxCell id="GG2dQuEG85UPLXLz023l-25" value="" style="endArrow=block;html=1;rounded=0;endFill=1;entryX=-0.017;entryY=0.383;entryDx=0;entryDy=0;entryPerimeter=0;" edge="1" parent="1">
          <mxGeometry width="50" height="50" relative="1" as="geometry">
            <mxPoint x="140" y="280.5" as="sourcePoint" />
            <mxPoint x="247.96000000000004" y="278.98" as="targetPoint" />
          </mxGeometry>
        </mxCell>
        <mxCell id="GG2dQuEG85UPLXLz023l-26" value="" style="endArrow=block;html=1;rounded=0;endFill=1;" edge="1" parent="1">
          <mxGeometry width="50" height="50" relative="1" as="geometry">
            <mxPoint x="370" y="280" as="sourcePoint" />
            <mxPoint x="410" y="280" as="targetPoint" />
          </mxGeometry>
        </mxCell>
        <mxCell id="GG2dQuEG85UPLXLz023l-27" value="" style="endArrow=block;html=1;rounded=0;endFill=1;entryX=0;entryY=0.5;entryDx=0;entryDy=0;" edge="1" parent="1" target="GG2dQuEG85UPLXLz023l-8">
          <mxGeometry width="50" height="50" relative="1" as="geometry">
            <mxPoint x="431" y="234.5" as="sourcePoint" />
            <mxPoint x="471" y="234.5" as="targetPoint" />
          </mxGeometry>
        </mxCell>
        <mxCell id="GG2dQuEG85UPLXLz023l-28" value="" style="endArrow=block;html=1;rounded=0;endFill=1;entryX=0;entryY=0.5;entryDx=0;entryDy=0;" edge="1" parent="1">
          <mxGeometry width="50" height="50" relative="1" as="geometry">
            <mxPoint x="431" y="304.5" as="sourcePoint" />
            <mxPoint x="480" y="305" as="targetPoint" />
          </mxGeometry>
        </mxCell>
        <mxCell id="GG2dQuEG85UPLXLz023l-29" value="" style="endArrow=block;html=1;rounded=0;endFill=1;entryX=0;entryY=0.5;entryDx=0;entryDy=0;" edge="1" parent="1">
          <mxGeometry width="50" height="50" relative="1" as="geometry">
            <mxPoint x="601" y="304.5" as="sourcePoint" />
            <mxPoint x="650" y="305" as="targetPoint" />
          </mxGeometry>
        </mxCell>
        <mxCell id="GG2dQuEG85UPLXLz023l-30" value="" style="endArrow=block;html=1;rounded=0;endFill=1;entryX=0;entryY=0.5;entryDx=0;entryDy=0;" edge="1" parent="1">
          <mxGeometry width="50" height="50" relative="1" as="geometry">
            <mxPoint x="600" y="234.5" as="sourcePoint" />
            <mxPoint x="649" y="235" as="targetPoint" />
          </mxGeometry>
        </mxCell>
        <mxCell id="GG2dQuEG85UPLXLz023l-31" value="" style="endArrow=block;html=1;rounded=0;endFill=1;" edge="1" parent="1">
          <mxGeometry width="50" height="50" relative="1" as="geometry">
            <mxPoint x="677" y="271" as="sourcePoint" />
            <mxPoint x="746" y="271" as="targetPoint" />
          </mxGeometry>
        </mxCell>
        <mxCell id="GG2dQuEG85UPLXLz023l-32" value="" style="endArrow=block;html=1;rounded=0;endFill=1;entryX=0;entryY=0.5;entryDx=0;entryDy=0;" edge="1" parent="1" target="GG2dQuEG85UPLXLz023l-15">
          <mxGeometry width="50" height="50" relative="1" as="geometry">
            <mxPoint x="790" y="269.5" as="sourcePoint" />
            <mxPoint x="859" y="269.5" as="targetPoint" />
          </mxGeometry>
        </mxCell>
        <mxCell id="GG2dQuEG85UPLXLz023l-33" value="&lt;font style=&quot;font-size: 12px;&quot;&gt;No&lt;/font&gt;" style="edgeLabel;html=1;align=center;verticalAlign=middle;resizable=0;points=[];" vertex="1" connectable="0" parent="GG2dQuEG85UPLXLz023l-32">
          <mxGeometry x="0.0105" relative="1" as="geometry">
            <mxPoint as="offset" />
          </mxGeometry>
        </mxCell>
        <mxCell id="GG2dQuEG85UPLXLz023l-34" value="" style="endArrow=block;html=1;rounded=0;endFill=1;exitX=0.5;exitY=1;exitDx=0;exitDy=0;entryX=0.5;entryY=0;entryDx=0;entryDy=0;" edge="1" parent="1" source="GG2dQuEG85UPLXLz023l-14" target="GG2dQuEG85UPLXLz023l-16">
          <mxGeometry width="50" height="50" relative="1" as="geometry">
            <mxPoint x="770.5" y="300" as="sourcePoint" />
            <mxPoint x="770" y="370" as="targetPoint" />
          </mxGeometry>
        </mxCell>
        <mxCell id="GG2dQuEG85UPLXLz023l-55" value="&lt;font style=&quot;font-size: 12px;&quot;&gt;Yes&lt;/font&gt;" style="edgeLabel;html=1;align=center;verticalAlign=middle;resizable=0;points=[];" vertex="1" connectable="0" parent="GG2dQuEG85UPLXLz023l-34">
          <mxGeometry x="-0.489" relative="1" as="geometry">
            <mxPoint as="offset" />
          </mxGeometry>
        </mxCell>
        <mxCell id="GG2dQuEG85UPLXLz023l-35" value="" style="endArrow=block;html=1;rounded=0;endFill=1;entryX=0.5;entryY=0;entryDx=0;entryDy=0;" edge="1" parent="1" target="GG2dQuEG85UPLXLz023l-18">
          <mxGeometry width="50" height="50" relative="1" as="geometry">
            <mxPoint x="769.5" y="430" as="sourcePoint" />
            <mxPoint x="769.5" y="490" as="targetPoint" />
          </mxGeometry>
        </mxCell>
        <mxCell id="GG2dQuEG85UPLXLz023l-36" value="" style="endArrow=block;html=1;rounded=0;endFill=1;exitX=0.5;exitY=1;exitDx=0;exitDy=0;entryX=0.5;entryY=0;entryDx=0;entryDy=0;" edge="1" parent="1">
          <mxGeometry width="50" height="50" relative="1" as="geometry">
            <mxPoint x="1000.5" y="290" as="sourcePoint" />
            <mxPoint x="999.5" y="380" as="targetPoint" />
          </mxGeometry>
        </mxCell>
        <mxCell id="GG2dQuEG85UPLXLz023l-37" value="" style="endArrow=block;html=1;rounded=0;endFill=1;entryX=0.5;entryY=0;entryDx=0;entryDy=0;" edge="1" parent="1">
          <mxGeometry width="50" height="50" relative="1" as="geometry">
            <mxPoint x="999.5" y="430" as="sourcePoint" />
            <mxPoint x="1000" y="520" as="targetPoint" />
          </mxGeometry>
        </mxCell>
        <mxCell id="GG2dQuEG85UPLXLz023l-38" value="" style="endArrow=block;html=1;rounded=0;endFill=1;entryX=0.5;entryY=0;entryDx=0;entryDy=0;exitX=0;exitY=0.5;exitDx=0;exitDy=0;" edge="1" parent="1" source="GG2dQuEG85UPLXLz023l-19">
          <mxGeometry width="50" height="50" relative="1" as="geometry">
            <mxPoint x="900" y="539.5" as="sourcePoint" />
            <mxPoint x="790" y="539.5" as="targetPoint" />
          </mxGeometry>
        </mxCell>
        <mxCell id="GG2dQuEG85UPLXLz023l-39" value="&lt;font style=&quot;font-size: 12px;&quot;&gt;Yes&lt;/font&gt;" style="edgeLabel;html=1;align=center;verticalAlign=middle;resizable=0;points=[];" vertex="1" connectable="0" parent="GG2dQuEG85UPLXLz023l-38">
          <mxGeometry x="-0.421" y="-2" relative="1" as="geometry">
            <mxPoint as="offset" />
          </mxGeometry>
        </mxCell>
        <mxCell id="GG2dQuEG85UPLXLz023l-40" value="" style="endArrow=block;html=1;rounded=0;endFill=1;edgeStyle=orthogonalEdgeStyle;entryX=0.5;entryY=0;entryDx=0;entryDy=0;" edge="1" parent="1" target="GG2dQuEG85UPLXLz023l-22">
          <mxGeometry width="50" height="50" relative="1" as="geometry">
            <mxPoint x="1020" y="539.5" as="sourcePoint" />
            <mxPoint x="1120" y="540" as="targetPoint" />
          </mxGeometry>
        </mxCell>
        <mxCell id="GG2dQuEG85UPLXLz023l-41" value="&lt;font style=&quot;font-size: 12px;&quot;&gt;No&lt;/font&gt;" style="edgeLabel;html=1;align=center;verticalAlign=middle;resizable=0;points=[];" vertex="1" connectable="0" parent="GG2dQuEG85UPLXLz023l-40">
          <mxGeometry x="-0.3444" relative="1" as="geometry">
            <mxPoint as="offset" />
          </mxGeometry>
        </mxCell>
        <mxCell id="GG2dQuEG85UPLXLz023l-42" value="" style="endArrow=block;html=1;rounded=0;endFill=1;entryX=1;entryY=0.5;entryDx=0;entryDy=0;" edge="1" parent="1" target="GG2dQuEG85UPLXLz023l-20">
          <mxGeometry width="50" height="50" relative="1" as="geometry">
            <mxPoint x="749" y="540" as="sourcePoint" />
            <mxPoint x="629" y="540" as="targetPoint" />
          </mxGeometry>
        </mxCell>
        <mxCell id="GG2dQuEG85UPLXLz023l-43" value="" style="endArrow=block;html=1;rounded=0;endFill=1;entryX=1;entryY=0.5;entryDx=0;entryDy=0;exitX=0;exitY=0.5;exitDx=0;exitDy=0;" edge="1" parent="1" source="GG2dQuEG85UPLXLz023l-20">
          <mxGeometry width="50" height="50" relative="1" as="geometry">
            <mxPoint x="334" y="539.5" as="sourcePoint" />
            <mxPoint x="145" y="539.5" as="targetPoint" />
          </mxGeometry>
        </mxCell>
        <mxCell id="GG2dQuEG85UPLXLz023l-44" value="&lt;font style=&quot;font-size: 12px;&quot;&gt;Yes&lt;/font&gt;" style="edgeLabel;html=1;align=center;verticalAlign=middle;resizable=0;points=[];" vertex="1" connectable="0" parent="GG2dQuEG85UPLXLz023l-43">
          <mxGeometry x="-0.696" y="1" relative="1" as="geometry">
            <mxPoint as="offset" />
          </mxGeometry>
        </mxCell>
        <mxCell id="GG2dQuEG85UPLXLz023l-45" value="" style="endArrow=block;html=1;rounded=0;endFill=1;edgeStyle=orthogonalEdgeStyle;" edge="1" parent="1" target="GG2dQuEG85UPLXLz023l-23">
          <mxGeometry width="50" height="50" relative="1" as="geometry">
            <mxPoint x="540.5" y="560" as="sourcePoint" />
            <mxPoint x="540" y="760" as="targetPoint" />
            <Array as="points">
              <mxPoint x="541" y="740" />
            </Array>
          </mxGeometry>
        </mxCell>
        <mxCell id="GG2dQuEG85UPLXLz023l-48" value="&lt;font style=&quot;font-size: 12px;&quot;&gt;No&lt;/font&gt;" style="edgeLabel;html=1;align=center;verticalAlign=middle;resizable=0;points=[];" vertex="1" connectable="0" parent="GG2dQuEG85UPLXLz023l-45">
          <mxGeometry x="-0.8481" y="-1" relative="1" as="geometry">
            <mxPoint as="offset" />
          </mxGeometry>
        </mxCell>
        <mxCell id="GG2dQuEG85UPLXLz023l-50" value="" style="endArrow=none;html=1;rounded=0;endFill=0;edgeStyle=orthogonalEdgeStyle;" edge="1" parent="1">
          <mxGeometry width="50" height="50" relative="1" as="geometry">
            <mxPoint x="1060" y="740" as="sourcePoint" />
            <mxPoint x="1240" y="270" as="targetPoint" />
          </mxGeometry>
        </mxCell>
        <mxCell id="GG2dQuEG85UPLXLz023l-51" value="" style="endArrow=block;html=1;rounded=0;endFill=1;entryX=1;entryY=0.5;entryDx=0;entryDy=0;" edge="1" parent="1">
          <mxGeometry width="50" height="50" relative="1" as="geometry">
            <mxPoint x="1240" y="270" as="sourcePoint" />
            <mxPoint x="1020" y="269.5" as="targetPoint" />
          </mxGeometry>
        </mxCell>
        <mxCell id="GG2dQuEG85UPLXLz023l-52" value="Was special offer email opened?" style="text;html=1;strokeColor=none;fillColor=none;align=center;verticalAlign=middle;whiteSpace=wrap;rounded=0;" vertex="1" parent="1">
          <mxGeometry x="960" y="560" width="100" height="30" as="geometry" />
        </mxCell>
        <mxCell id="GG2dQuEG85UPLXLz023l-54" value="Whether user bought something?" style="text;html=1;strokeColor=none;fillColor=none;align=center;verticalAlign=middle;whiteSpace=wrap;rounded=0;" vertex="1" parent="1">
          <mxGeometry x="490" y="480" width="120" height="30" as="geometry" />
        </mxCell>
        <mxCell id="GG2dQuEG85UPLXLz023l-56" value="Was welcome email opened?" style="text;html=1;strokeColor=none;fillColor=none;align=center;verticalAlign=middle;whiteSpace=wrap;rounded=0;" vertex="1" parent="1">
          <mxGeometry x="720" y="214" width="100" height="30" as="geometry" />
        </mxCell>
        <mxCell id="GG2dQuEG85UPLXLz023l-57" value="User filled the registration form (triggered event)" style="text;html=1;strokeColor=none;fillColor=none;align=center;verticalAlign=middle;whiteSpace=wrap;rounded=0;" vertex="1" parent="1">
          <mxGeometry x="80" y="230" width="130" height="30" as="geometry" />
        </mxCell>
        <mxCell id="GG2dQuEG85UPLXLz023l-58" value="" style="endArrow=block;html=1;rounded=0;endFill=1;edgeStyle=orthogonalEdgeStyle;" edge="1" parent="1" target="GG2dQuEG85UPLXLz023l-18">
          <mxGeometry width="50" height="50" relative="1" as="geometry">
            <mxPoint x="810" y="624.5" as="sourcePoint" />
            <mxPoint x="760" y="625" as="targetPoint" />
          </mxGeometry>
        </mxCell>
        <mxCell id="GG2dQuEG85UPLXLz023l-59" value="" style="endArrow=block;html=1;rounded=0;endFill=1;entryX=1;entryY=0.5;entryDx=0;entryDy=0;" edge="1" parent="1">
          <mxGeometry width="50" height="50" relative="1" as="geometry">
            <mxPoint x="1075.5" y="624.5" as="sourcePoint" />
            <mxPoint x="930" y="624.5" as="targetPoint" />
          </mxGeometry>
        </mxCell>
        <mxCell id="GG2dQuEG85UPLXLz023l-60" value="Fork nodes" style="shape=note;whiteSpace=wrap;html=1;backgroundOutline=1;darkOpacity=0.05;" vertex="1" parent="1">
          <mxGeometry x="355" y="350" width="130" height="70" as="geometry" />
        </mxCell>
        <mxCell id="GG2dQuEG85UPLXLz023l-61" value="" style="endArrow=none;html=1;rounded=0;strokeWidth=2;" edge="1" parent="1">
          <mxGeometry width="50" height="50" relative="1" as="geometry">
            <mxPoint x="419.5" y="350" as="sourcePoint" />
            <mxPoint x="419.5" y="330" as="targetPoint" />
          </mxGeometry>
        </mxCell>
        <mxCell id="GG2dQuEG85UPLXLz023l-62" value="Join nodes" style="shape=note;whiteSpace=wrap;html=1;backgroundOutline=1;darkOpacity=0.05;" vertex="1" parent="1">
          <mxGeometry x="560" y="350" width="130" height="70" as="geometry" />
        </mxCell>
        <mxCell id="GG2dQuEG85UPLXLz023l-65" value="" style="endArrow=none;html=1;rounded=0;strokeWidth=2;entryX=1;entryY=0.75;entryDx=0;entryDy=0;exitX=0.438;exitY=0.014;exitDx=0;exitDy=0;exitPerimeter=0;" edge="1" parent="1" source="GG2dQuEG85UPLXLz023l-62" target="GG2dQuEG85UPLXLz023l-13">
          <mxGeometry width="50" height="50" relative="1" as="geometry">
            <mxPoint x="478.5" y="360" as="sourcePoint" />
            <mxPoint x="500" y="350" as="targetPoint" />
          </mxGeometry>
        </mxCell>
      </root>
    </mxGraphModel>
  </diagram>
</mxfile>
